<svg xmlns="http://www.w3.org/2000/svg" viewBox="0 0 72 72" role="img" aria-label="Excel document">
  <defs>
    <linearGradient id="excelDocumentGradient" x1="9.615" y1="3" x2="60.385" y2="69" gradientUnits="userSpaceOnUse">
      <stop offset="0" stop-color="#34D399" stop-opacity="0.97" />
      <stop offset="1" stop-color="#087F5B" stop-opacity="0.97" />
    </linearGradient>
    <linearGradient id="excelRim" x1="36" y1="3" x2="36" y2="69" gradientUnits="userSpaceOnUse">
      <stop offset="0" stop-color="#FFFFFF" stop-opacity="0.85" />
      <stop offset="0.5" stop-color="#FFFFFF" stop-opacity="0.18" />
      <stop offset="1" stop-color="#065F46" stop-opacity="0.45" />
    </linearGradient>
    <filter id="excelSoft"><feGaussianBlur stdDeviation="1.8" /></filter>
    <clipPath id="excelClip">
      <path d="M21.615 3h23.77l15 18v36c0 6.627-5.373 12-12 12h-26.77c-6.627 0-12-5.373-12-12V15c0-6.627 5.373-12 12-12Z" />
    </clipPath>
  </defs>
  <path
    fill="#065F46"
    opacity="0.2"
    d="M21.615 3.9h23.77l15 18v36c0 6.627-5.373 12-12 12h-26.77c-6.627 0-12-5.373-12-12v-42c0-6.627 5.373-12 12-12Z"
  />
  <path
    fill="url(#excelDocumentGradient)"
    d="M21.615 3h23.77l15 18v36c0 6.627-5.373 12-12 12h-26.77c-6.627 0-12-5.373-12-12V15c0-6.627 5.373-12 12-12Z"
  />
  <g clip-path="url(#excelClip)">
    <ellipse cx="33" cy="8.5" rx="28" ry="7" fill="#FFFFFF" opacity="0.22" filter="url(#excelSoft)" />
    <ellipse cx="13" cy="42" rx="4.5" ry="15" fill="#FFFFFF" opacity="0.12" filter="url(#excelSoft)" />
  </g>
  <path fill="#74DDB5" d="M45.385 3v18h15L45.385 3Z" />
  <path
    fill="none"
    stroke="url(#excelRim)"
    stroke-width="1.8"
    d="M21.615 3h23.77l15 18v36c0 6.627-5.373 12-12 12h-26.77c-6.627 0-12-5.373-12-12V15c0-6.627 5.373-12 12-12Z"
  />
  <rect
    x="20.5"
    y="34"
    width="29"
    height="22"
    rx="2.5"
    fill="none"
    stroke="#FFFFFF"
    stroke-width="3.25"
  />
  <path
    fill="none"
    stroke="#FFFFFF"
    stroke-linecap="round"
    stroke-width="3.25"
    d="M35 34v22M20.5 45h29"
  />
</svg>
