<svg xmlns="http://www.w3.org/2000/svg" viewBox="0 0 72 72" role="img" aria-label="PowerPoint document">
  <defs>
    <linearGradient id="pptDocumentGradient" x1="9.615" y1="3" x2="60.385" y2="69" gradientUnits="userSpaceOnUse">
      <stop offset="0" stop-color="#FF7043" stop-opacity="0.97" />
      <stop offset="1" stop-color="#B3261E" stop-opacity="0.97" />
    </linearGradient>
    <linearGradient id="pptRim" x1="36" y1="3" x2="36" y2="69" gradientUnits="userSpaceOnUse">
      <stop offset="0" stop-color="#FFFFFF" stop-opacity="0.85" />
      <stop offset="0.5" stop-color="#FFFFFF" stop-opacity="0.18" />
      <stop offset="1" stop-color="#7A1712" stop-opacity="0.45" />
    </linearGradient>
    <filter id="pptSoft"><feGaussianBlur stdDeviation="1.8" /></filter>
    <clipPath id="pptClip">
      <path d="M21.615 3h23.77l15 18v36c0 6.627-5.373 12-12 12h-26.77c-6.627 0-12-5.373-12-12V15c0-6.627 5.373-12 12-12Z" />
    </clipPath>
  </defs>
  <path
    fill="#7A1712"
    opacity="0.2"
    d="M21.615 3.9h23.77l15 18v36c0 6.627-5.373 12-12 12h-26.77c-6.627 0-12-5.373-12-12v-42c0-6.627 5.373-12 12-12Z"
  />
  <path
    fill="url(#pptDocumentGradient)"
    d="M21.615 3h23.77l15 18v36c0 6.627-5.373 12-12 12h-26.77c-6.627 0-12-5.373-12-12V15c0-6.627 5.373-12 12-12Z"
  />
  <g clip-path="url(#pptClip)">
    <ellipse cx="33" cy="8.5" rx="28" ry="7" fill="#FFFFFF" opacity="0.22" filter="url(#pptSoft)" />
    <ellipse cx="13" cy="42" rx="4.5" ry="15" fill="#FFFFFF" opacity="0.12" filter="url(#pptSoft)" />
  </g>
  <path fill="#FF9E80" d="M45.385 3v18h15L45.385 3Z" />
  <path
    fill="none"
    stroke="url(#pptRim)"
    stroke-width="1.8"
    d="M21.615 3h23.77l15 18v36c0 6.627-5.373 12-12 12h-26.77c-6.627 0-12-5.373-12-12V15c0-6.627 5.373-12 12-12Z"
  />
  <rect
    x="18"
    y="34.2875"
    width="34"
    height="22.425"
    rx="3"
    fill="none"
    stroke="#FFFFFF"
    stroke-width="3.25"
  />
</svg>
