<svg xmlns="http://www.w3.org/2000/svg" viewBox="0 0 72 72" role="img" aria-label="Word document">
  <defs>
    <linearGradient id="wordDocumentGradient" x1="9.615" y1="3" x2="60.385" y2="69" gradientUnits="userSpaceOnUse">
      <stop offset="0" stop-color="#43A5F5" stop-opacity="0.97" />
      <stop offset="1" stop-color="#064BAE" stop-opacity="0.97" />
    </linearGradient>
    <linearGradient id="wordRim" x1="36" y1="3" x2="36" y2="69" gradientUnits="userSpaceOnUse">
      <stop offset="0" stop-color="#FFFFFF" stop-opacity="0.85" />
      <stop offset="0.5" stop-color="#FFFFFF" stop-opacity="0.18" />
      <stop offset="1" stop-color="#04347A" stop-opacity="0.45" />
    </linearGradient>
    <filter id="wordSoft"><feGaussianBlur stdDeviation="1.8" /></filter>
    <clipPath id="wordClip">
      <path d="M21.615 3h23.77l15 18v36c0 6.627-5.373 12-12 12h-26.77c-6.627 0-12-5.373-12-12V15c0-6.627 5.373-12 12-12Z" />
    </clipPath>
  </defs>
  <path
    fill="#04347A"
    opacity="0.2"
    d="M21.615 3.9h23.77l15 18v36c0 6.627-5.373 12-12 12h-26.77c-6.627 0-12-5.373-12-12v-42c0-6.627 5.373-12 12-12Z"
  />
  <path
    fill="url(#wordDocumentGradient)"
    d="M21.615 3h23.77l15 18v36c0 6.627-5.373 12-12 12h-26.77c-6.627 0-12-5.373-12-12V15c0-6.627 5.373-12 12-12Z"
  />
  <g clip-path="url(#wordClip)">
    <ellipse cx="33" cy="8.5" rx="28" ry="7" fill="#FFFFFF" opacity="0.22" filter="url(#wordSoft)" />
    <ellipse cx="13" cy="42" rx="4.5" ry="15" fill="#FFFFFF" opacity="0.12" filter="url(#wordSoft)" />
  </g>
  <path fill="#63A2E2" d="M45.385 3v18h15L45.385 3Z" />
  <path
    fill="none"
    stroke="url(#wordRim)"
    stroke-width="1.8"
    d="M21.615 3h23.77l15 18v36c0 6.627-5.373 12-12 12h-26.77c-6.627 0-12-5.373-12-12V15c0-6.627 5.373-12 12-12Z"
  />
  <path
    fill="#FFFFFF"
    d="M19.5 32a2.5 2.5 0 0 1 2.5-2.5h26a2.5 2.5 0 0 1 0 5H22a2.5 2.5 0 0 1-2.5-2.5Zm0 10.5A2.5 2.5 0 0 1 22 40h26a2.5 2.5 0 0 1 0 5H22a2.5 2.5 0 0 1-2.5-2.5Zm0 10.5a2.5 2.5 0 0 1 2.5-2.5h26a2.5 2.5 0 0 1 0 5H22a2.5 2.5 0 0 1-2.5-2.5Z"
  />
</svg>
